<svg width="120" height="120" viewBox="0 0 120 120" fill="none" xmlns="http://www.w3.org/2000/svg">
<rect width="120" height="120" rx="32" fill="#6C57DB" fill-opacity="0.06"/>
<path d="M54.1735 78.9615H42.4877C41.2235 78.9615 40.1752 77.9132 40.1752 76.649V60.8624C40.1752 57.6557 42.796 55.0345 46.0026 55.0345H54.1735C55.4376 55.0345 56.486 56.0829 56.486 57.347V76.6179C56.486 77.9129 55.4376 78.9615 54.1735 78.9615ZM44.8002 74.3365H51.8609V59.6907H46.0026C45.3551 59.6907 44.8002 60.2145 44.8002 60.8929V74.3365Z" fill="#6C57DB"/>
<path d="M65.8263 78.9615H54.1405C52.8763 78.9615 51.828 77.9132 51.828 76.649V46.8638C51.828 43.6571 54.4488 41.0363 57.6555 41.0363H62.3421C65.5488 41.0363 68.1696 43.6571 68.1696 46.8638V76.649C68.1388 77.9132 67.1213 78.9615 65.8263 78.9615ZM56.4838 74.3365H63.5446V46.8638C63.5446 46.2163 63.0205 45.6613 62.3421 45.6613H57.6555C57.008 45.6613 56.453 46.1855 56.453 46.8638V74.3365H56.4838Z" fill="#6C57DB"/>
<path d="M77.5152 78.9616H65.8293C64.5652 78.9616 63.5168 77.9133 63.5168 76.6491V62.6196C63.5168 61.3555 64.5652 60.3071 65.8293 60.3071H74.0002C77.2068 60.3071 79.8277 62.928 79.8277 66.1346V76.6491C79.8277 77.9133 78.8102 78.9616 77.5152 78.9616ZM68.1418 74.3366H75.2027V66.1346C75.2027 65.4871 74.6785 64.9321 74.0002 64.9321H68.1418V74.3366Z" fill="#6C57DB"/>
<path d="M69.25 93.1458H50.75C34.0075 93.1458 26.8541 85.9925 26.8541 69.25V50.75C26.8541 34.0075 34.0075 26.8541 50.75 26.8541H69.25C85.9925 26.8541 93.1458 34.0075 93.1458 50.75V69.25C93.1458 85.9925 85.9925 93.1458 69.25 93.1458ZM50.75 31.4791C36.5358 31.4791 31.4791 36.5358 31.4791 50.75V69.25C31.4791 83.4641 36.5358 88.5208 50.75 88.5208H69.25C83.4641 88.5208 88.5208 83.4641 88.5208 69.25V50.75C88.5208 36.5358 83.4641 31.4791 69.25 31.4791H50.75Z" fill="#6C57DB"/>
</svg>
