<svg width="120" height="120" viewBox="0 0 120 120" fill="none" xmlns="http://www.w3.org/2000/svg">
<rect width="120" height="120" rx="32" fill="#6C57DB" fill-opacity="0.06"/>
<path d="M59.9981 64.0081C59.5973 64.0081 59.1964 63.9156 58.8264 63.6997L31.6005 47.9439C30.4905 47.2964 30.1204 45.878 30.7679 44.768C31.4154 43.658 32.8029 43.2879 33.9438 43.9354L59.9981 59.0131L85.8978 44.028C87.0078 43.3805 88.4261 43.7814 89.0736 44.8606C89.7211 45.9706 89.3206 47.3888 88.2414 48.0363L61.2006 63.6997C60.7998 63.8847 60.3989 64.0081 59.9981 64.0081Z" fill="#6C57DB"/>
<path d="M60 91.9434C58.7358 91.9434 57.6875 90.895 57.6875 89.6309V61.665C57.6875 60.4009 58.7358 59.3525 60 59.3525C61.2642 59.3525 62.3125 60.4009 62.3125 61.665V89.6309C62.3125 90.895 61.2642 91.9434 60 91.9434Z" fill="#6C57DB"/>
<path d="M59.9966 93.1465C57.1908 93.1465 54.5083 92.499 52.4733 91.3582L36.0083 82.2318C31.5374 79.7651 28.0225 73.814 28.0225 68.6957V51.244C28.0225 46.1257 31.5374 40.2059 36.0083 37.7084L52.4733 28.5816C56.6666 26.2383 63.2649 26.2383 67.4891 28.5816L83.9541 37.7084C88.4249 40.175 91.9399 46.1257 91.9399 51.244V62.529C91.9399 63.7932 90.8916 64.8415 89.6274 64.8415C88.3633 64.8415 87.3149 63.7932 87.3149 62.529V51.244C87.3149 47.8524 84.6941 43.4125 81.7341 41.7784L65.2691 32.6516C62.4633 31.0791 57.5608 31.0791 54.7549 32.6516L38.2899 41.7784C35.2991 43.4434 32.7091 47.8524 32.7091 51.244V68.6957C32.7091 72.0873 35.3299 76.5276 38.2899 78.1618L54.7549 87.2882C57.4683 88.799 62.5866 88.799 65.2691 87.2882C66.3791 86.6715 67.7974 87.0727 68.4141 88.1826C69.0308 89.2926 68.6299 90.7107 67.5199 91.3273C65.4849 92.499 62.8024 93.1465 59.9966 93.1465Z" fill="#6C57DB"/>
<path d="M82.2 91.2958C75.4784 91.2958 70.0209 85.8383 70.0209 79.1167C70.0209 72.395 75.4784 66.9375 82.2 66.9375C88.9217 66.9375 94.3792 72.395 94.3792 79.1167C94.3792 85.8383 88.9217 91.2958 82.2 91.2958ZM82.2 71.5625C78.0375 71.5625 74.6459 74.9542 74.6459 79.1167C74.6459 83.2792 78.0375 86.6708 82.2 86.6708C86.3625 86.6708 89.7542 83.2792 89.7542 79.1167C89.7542 74.9542 86.3625 71.5625 82.2 71.5625Z" fill="#6C57DB"/>
<path d="M93.9151 93.1459C93.3293 93.1459 92.7434 92.9301 92.2809 92.4676L89.1976 89.3842C88.3034 88.49 88.3034 87.0097 89.1976 86.1156C90.0918 85.2214 91.5718 85.2214 92.4659 86.1156L95.5493 89.1989C96.4434 90.0931 96.4434 91.5734 95.5493 92.4676C95.0868 92.9301 94.5009 93.1459 93.9151 93.1459Z" fill="#6C57DB"/>
</svg>
