<svg width="120" height="120" viewBox="0 0 120 120" fill="none" xmlns="http://www.w3.org/2000/svg">
<rect width="120" height="120" rx="32" fill="#6C57DB" fill-opacity="0.06"/>
<path d="M50.7529 77.7289C50.4138 77.7289 50.0438 77.6364 49.7354 77.4822C47.3613 76.2797 45.3263 74.4914 43.8463 72.2714C42.6129 70.4214 42.6129 68.0472 43.8463 66.1972C45.3263 63.9772 47.3613 62.1889 49.7354 61.0172C50.8763 60.4314 52.2638 60.9247 52.8496 62.0656C53.4354 63.2064 52.9729 64.5939 51.8013 65.1797C50.1363 66.0122 48.7179 67.2764 47.7004 68.8181C47.5154 69.0956 47.5154 69.4656 47.7004 69.7739C48.7179 71.3156 50.1363 72.5797 51.8013 73.4122C52.9421 73.9981 53.4046 75.3856 52.8496 76.5264C52.4179 77.2664 51.5854 77.7289 50.7529 77.7289Z" fill="#6C57DB"/>
<path d="M69.895 77.7288C69.0317 77.7288 68.23 77.2663 67.8292 76.4647C67.2433 75.3238 67.7058 73.9363 68.8775 73.3505C70.5425 72.518 71.9608 71.2538 72.9783 69.7122C73.1633 69.4347 73.1633 69.0647 72.9783 68.7563C71.9608 67.2147 70.5425 65.9505 68.8775 65.118C67.7367 64.5322 67.2742 63.1447 67.8292 62.0038C68.415 60.863 69.8025 60.4005 70.9433 60.9555C73.3175 62.158 75.3525 63.9463 76.8325 66.1663C78.0658 68.0163 78.0658 70.3905 76.8325 72.2405C75.3525 74.4605 73.3175 76.2488 70.9433 77.4205C70.5733 77.6363 70.2342 77.7288 69.895 77.7288Z" fill="#6C57DB"/>
<path d="M69.25 93.1458H50.75C34.0075 93.1458 26.8541 85.9925 26.8541 69.25V50.75C26.8541 34.0075 34.0075 26.8541 50.75 26.8541H69.25C85.9925 26.8541 93.1458 34.0075 93.1458 50.75V69.25C93.1458 85.9925 85.9925 93.1458 69.25 93.1458ZM50.75 31.4791C36.5358 31.4791 31.4791 36.5358 31.4791 50.75V69.25C31.4791 83.4641 36.5358 88.5208 50.75 88.5208H69.25C83.4641 88.5208 88.5208 83.4641 88.5208 69.25V50.75C88.5208 36.5358 83.4641 31.4791 69.25 31.4791H50.75Z" fill="#6C57DB"/>
<path d="M29.8773 50.01C28.6132 50.01 27.5648 48.9616 27.5648 47.6975C27.5648 46.4333 28.5823 45.385 29.8773 45.385L89.1391 45.3541C90.4032 45.3541 91.4516 46.4025 91.4516 47.6666C91.4516 48.9308 90.4341 49.9791 89.1391 49.9791L29.8773 50.01Z" fill="#6C57DB"/>
</svg>
