<svg width="48" height="48" viewBox="0 0 48 48" fill="none" xmlns="http://www.w3.org/2000/svg">
<rect width="48" height="48" rx="8" fill="#6C57DB"/>
<path d="M27.4983 26.306C27.4983 26.918 27.4263 27.494 27.2823 28.034C27.1503 28.574 26.9103 29.048 26.5623 29.456C26.2263 29.852 25.7643 30.17 25.1763 30.41C24.6003 30.638 23.8683 30.752 22.9803 30.752C22.1643 30.752 21.4623 30.656 20.8743 30.464C20.2863 30.26 19.8003 30.026 19.4163 29.762L20.3523 27.584C20.7003 27.788 21.0723 27.968 21.4683 28.124C21.8643 28.28 22.2963 28.358 22.7643 28.358C23.4483 28.358 23.9403 28.19 24.2403 27.854C24.5403 27.518 24.6903 26.954 24.6903 26.162V18.026H27.4983V26.306Z" fill="white"/>
</svg>
