<svg width="22" height="13" viewBox="0 0 22 13" fill="none" xmlns="http://www.w3.org/2000/svg">
<path d="M0.858547 12.5V0.0259997H8.47255V1.52H2.60455V5.228H7.82455V6.686H2.60455V11.006H8.92255V12.5H0.858547ZM19.6918 12.5C19.4278 12.056 19.1218 11.558 18.7738 11.006C18.4378 10.454 18.0718 9.884 17.6758 9.296C17.2798 8.696 16.8658 8.09 16.4338 7.478C16.0138 6.866 15.5938 6.278 15.1738 5.714C14.7538 5.138 14.3458 4.598 13.9498 4.094C13.5538 3.59 13.1878 3.146 12.8518 2.762V12.5H11.1418V0.0259997H12.5278C13.0918 0.626 13.6918 1.328 14.3278 2.132C14.9758 2.924 15.6118 3.746 16.2358 4.598C16.8718 5.438 17.4658 6.266 18.0178 7.082C18.5818 7.898 19.0558 8.624 19.4398 9.26V0.0259997H21.1498V12.5H19.6918Z" fill="#213D39"/>
</svg>
