<svg width="149" height="19" viewBox="0 0 149 19" fill="none" xmlns="http://www.w3.org/2000/svg">
<path d="M0.779844 18V1.2H7.22384C8.13584 1.2 8.95984 1.428 9.69584 1.884C10.4318 2.34 11.0158 2.952 11.4478 3.72C11.8798 4.48 12.0958 5.324 12.0958 6.252C12.0958 7.012 11.9558 7.712 11.6758 8.352C11.4038 8.984 11.0198 9.532 10.5238 9.996C10.0358 10.46 9.47184 10.812 8.83184 11.052L12.8518 18H9.47984L5.59184 11.316H3.70784V18H0.779844ZM3.70784 8.388H6.88784C7.30384 8.388 7.68384 8.284 8.02784 8.076C8.37184 7.868 8.64784 7.588 8.85584 7.236C9.06384 6.884 9.16784 6.492 9.16784 6.06C9.16784 5.62 9.06384 5.224 8.85584 4.872C8.64784 4.52 8.37184 4.24 8.02784 4.032C7.68384 3.824 7.30384 3.72 6.88784 3.72H3.70784V8.388ZM19.6067 18.312C18.5027 18.312 17.4947 18.028 16.5827 17.46C15.6787 16.892 14.9547 16.128 14.4107 15.168C13.8747 14.208 13.6067 13.148 13.6067 11.988C13.6067 11.116 13.7627 10.3 14.0747 9.54C14.3867 8.772 14.8147 8.1 15.3587 7.524C15.9107 6.94 16.5507 6.484 17.2787 6.156C18.0067 5.828 18.7827 5.664 19.6067 5.664C20.5427 5.664 21.3987 5.864 22.1747 6.264C22.9587 6.656 23.6227 7.196 24.1667 7.884C24.7107 8.572 25.1067 9.356 25.3547 10.236C25.6027 11.116 25.6587 12.036 25.5227 12.996H16.7507C16.8627 13.444 17.0467 13.848 17.3027 14.208C17.5587 14.56 17.8827 14.844 18.2747 15.06C18.6667 15.268 19.1107 15.376 19.6067 15.384C20.1187 15.392 20.5827 15.272 20.9987 15.024C21.4227 14.768 21.7747 14.424 22.0547 13.992L25.0427 14.688C24.5547 15.752 23.8267 16.624 22.8587 17.304C21.8907 17.976 20.8067 18.312 19.6067 18.312ZM16.6547 10.8H22.5587C22.4707 10.32 22.2827 9.888 21.9947 9.504C21.7147 9.112 21.3667 8.8 20.9507 8.568C20.5347 8.336 20.0867 8.22 19.6067 8.22C19.1267 8.22 18.6827 8.336 18.2747 8.568C17.8667 8.792 17.5187 9.1 17.2307 9.492C16.9507 9.876 16.7587 10.312 16.6547 10.8ZM34.3407 18H30.5607L26.1927 5.988H29.3127L32.4567 14.628L35.5887 5.988H38.7087L34.3407 18ZM40.483 6H43.411V18H40.483V6ZM41.971 4.452C41.539 4.452 41.175 4.312 40.879 4.032C40.583 3.744 40.435 3.384 40.435 2.952C40.435 2.528 40.583 2.172 40.879 1.884C41.175 1.596 41.535 1.452 41.959 1.452C42.383 1.452 42.739 1.596 43.027 1.884C43.323 2.172 43.471 2.528 43.471 2.952C43.471 3.384 43.327 3.744 43.039 4.032C42.751 4.312 42.395 4.452 41.971 4.452ZM51.2942 18.312C50.1902 18.312 49.1822 18.028 48.2702 17.46C47.3662 16.892 46.6422 16.128 46.0982 15.168C45.5622 14.208 45.2942 13.148 45.2942 11.988C45.2942 11.116 45.4502 10.3 45.7622 9.54C46.0742 8.772 46.5022 8.1 47.0462 7.524C47.5982 6.94 48.2382 6.484 48.9662 6.156C49.6942 5.828 50.4702 5.664 51.2942 5.664C52.2302 5.664 53.0862 5.864 53.8622 6.264C54.6462 6.656 55.3102 7.196 55.8542 7.884C56.3982 8.572 56.7942 9.356 57.0422 10.236C57.2902 11.116 57.3462 12.036 57.2102 12.996H48.4382C48.5502 13.444 48.7342 13.848 48.9902 14.208C49.2462 14.56 49.5702 14.844 49.9622 15.06C50.3542 15.268 50.7982 15.376 51.2942 15.384C51.8062 15.392 52.2702 15.272 52.6862 15.024C53.1102 14.768 53.4622 14.424 53.7422 13.992L56.7302 14.688C56.2422 15.752 55.5142 16.624 54.5462 17.304C53.5782 17.976 52.4942 18.312 51.2942 18.312ZM48.3422 10.8H54.2462C54.1582 10.32 53.9702 9.888 53.6822 9.504C53.4022 9.112 53.0542 8.8 52.6382 8.568C52.2222 8.336 51.7742 8.22 51.2942 8.22C50.8142 8.22 50.3702 8.336 49.9622 8.568C49.5542 8.792 49.2062 9.1 48.9182 9.492C48.6382 9.876 48.4462 10.312 48.3422 10.8ZM64.7922 18H61.8882L57.8802 6H60.7482L63.3522 13.764L65.9442 6H68.8362L71.4282 13.764L74.0322 6H76.9002L72.8922 18H69.9882L67.3842 10.2L64.7922 18Z" fill="#213D39"/>
<path d="M84.6771 1.2H88.0491L94.1571 18H91.0491L89.9691 15.024H82.7691L81.6891 18H78.5811L84.6771 1.2ZM83.8371 12.096H88.8891L86.3571 5.172L83.8371 12.096ZM96.0184 18L96.0064 6H98.9344L98.9464 7.068C99.3544 6.636 99.8424 6.296 100.41 6.048C100.978 5.792 101.59 5.664 102.246 5.664C102.686 5.664 103.126 5.728 103.566 5.856L102.414 8.808C102.11 8.688 101.806 8.628 101.502 8.628C101.03 8.628 100.598 8.744 100.206 8.976C99.8224 9.2 99.5144 9.508 99.2824 9.9C99.0584 10.284 98.9464 10.712 98.9464 11.184V18H96.0184ZM111.673 8.928H109.345V18H106.417V8.928H104.641V6H106.417V2.232H109.345V6H111.673V8.928ZM113.655 6H116.583V18H113.655V6ZM115.143 4.452C114.711 4.452 114.347 4.312 114.051 4.032C113.755 3.744 113.607 3.384 113.607 2.952C113.607 2.528 113.755 2.172 114.051 1.884C114.347 1.596 114.707 1.452 115.131 1.452C115.555 1.452 115.911 1.596 116.199 1.884C116.495 2.172 116.643 2.528 116.643 2.952C116.643 3.384 116.499 3.744 116.211 4.032C115.923 4.312 115.567 4.452 115.143 4.452ZM126.626 14.388L129.266 15.816C128.714 16.568 128.022 17.172 127.19 17.628C126.358 18.084 125.45 18.312 124.466 18.312C123.362 18.312 122.354 18.028 121.442 17.46C120.538 16.892 119.814 16.132 119.27 15.18C118.734 14.22 118.466 13.16 118.466 12C118.466 11.12 118.622 10.3 118.934 9.54C119.246 8.772 119.674 8.1 120.218 7.524C120.77 6.94 121.41 6.484 122.138 6.156C122.866 5.828 123.642 5.664 124.466 5.664C125.45 5.664 126.358 5.892 127.19 6.348C128.022 6.804 128.714 7.416 129.266 8.184L126.626 9.6C126.346 9.28 126.014 9.032 125.63 8.856C125.254 8.68 124.866 8.592 124.466 8.592C123.89 8.592 123.37 8.752 122.906 9.072C122.442 9.384 122.074 9.8 121.802 10.32C121.53 10.832 121.394 11.392 121.394 12C121.394 12.6 121.53 13.16 121.802 13.68C122.074 14.192 122.442 14.604 122.906 14.916C123.37 15.228 123.89 15.384 124.466 15.384C124.882 15.384 125.278 15.296 125.654 15.12C126.03 14.936 126.354 14.692 126.626 14.388ZM131.045 18V-1.43051e-06H133.973V18H131.045ZM141.95 18.312C140.846 18.312 139.838 18.028 138.926 17.46C138.022 16.892 137.298 16.128 136.754 15.168C136.218 14.208 135.95 13.148 135.95 11.988C135.95 11.116 136.106 10.3 136.418 9.54C136.73 8.772 137.158 8.1 137.702 7.524C138.254 6.94 138.894 6.484 139.622 6.156C140.35 5.828 141.126 5.664 141.95 5.664C142.886 5.664 143.742 5.864 144.518 6.264C145.302 6.656 145.966 7.196 146.51 7.884C147.054 8.572 147.45 9.356 147.698 10.236C147.946 11.116 148.002 12.036 147.866 12.996H139.094C139.206 13.444 139.39 13.848 139.646 14.208C139.902 14.56 140.226 14.844 140.618 15.06C141.01 15.268 141.454 15.376 141.95 15.384C142.462 15.392 142.926 15.272 143.342 15.024C143.766 14.768 144.118 14.424 144.398 13.992L147.386 14.688C146.898 15.752 146.17 16.624 145.202 17.304C144.234 17.976 143.15 18.312 141.95 18.312ZM138.998 10.8H144.902C144.814 10.32 144.626 9.888 144.338 9.504C144.058 9.112 143.71 8.8 143.294 8.568C142.878 8.336 142.43 8.22 141.95 8.22C141.47 8.22 141.026 8.336 140.618 8.568C140.21 8.792 139.862 9.1 139.574 9.492C139.294 9.876 139.102 10.312 138.998 10.8Z" fill="#6C57DB"/>
</svg>
