<svg width="120" height="120" viewBox="0 0 120 120" fill="none" xmlns="http://www.w3.org/2000/svg">
<rect width="120" height="120" rx="32" fill="#6C57DB" fill-opacity="0.06"/>
<path d="M77.6984 93.1459H42.3017C34.6242 93.1459 28.3959 86.9175 28.3959 79.24V58.4892C28.3959 50.8117 34.6242 44.5834 42.3017 44.5834H77.6984C85.3759 44.5834 91.6042 50.8117 91.6042 58.4892V62.9292C91.6042 64.1934 90.5559 65.2417 89.2917 65.2417H83.0634C81.9842 65.2417 80.9975 65.6425 80.2884 66.3825L80.2575 66.4134C79.3942 67.2459 78.9934 68.3867 79.0859 69.5584C79.2709 71.5934 81.2134 73.2275 83.4334 73.2275H89.2917C90.5559 73.2275 91.6042 74.2759 91.6042 75.54V79.2092C91.6042 86.9175 85.3759 93.1459 77.6984 93.1459ZM42.3017 49.2084C37.1834 49.2084 33.0209 53.3709 33.0209 58.4892V79.24C33.0209 84.3584 37.1834 88.5209 42.3017 88.5209H77.6984C82.8167 88.5209 86.9792 84.3584 86.9792 79.24V77.8834H83.4334C78.7775 77.8834 74.8309 74.43 74.4609 69.99C74.2142 67.4617 75.1392 64.9642 76.9892 63.145C78.5925 61.5109 80.7509 60.6167 83.0634 60.6167H86.9792V58.4892C86.9792 53.3709 82.8167 49.2084 77.6984 49.2084H42.3017Z" fill="#6C57DB"/>
<path d="M30.7084 63.5766C29.4442 63.5766 28.3959 62.5283 28.3959 61.2641V47.1735C28.3959 42.5793 31.2942 38.4167 35.58 36.7825L60.0617 27.5325C62.59 26.5767 65.3959 26.9159 67.585 28.4576C69.805 29.9993 71.1 32.4968 71.1 35.1793V46.8959C71.1 48.16 70.0517 49.2084 68.7875 49.2084C67.5234 49.2084 66.475 48.16 66.475 46.8959V35.1793C66.475 34.0076 65.92 32.9284 64.9334 32.25C63.9467 31.5717 62.775 31.4175 61.665 31.8492L37.1834 41.0992C34.6859 42.055 32.99 44.491 32.99 47.1735V61.2641C33.0209 62.5591 31.9725 63.5766 30.7084 63.5766Z" fill="#6C57DB"/>
<path d="M83.4348 77.884C78.779 77.884 74.8323 74.4306 74.4623 69.9906C74.2157 67.4315 75.1407 64.934 76.9907 63.1148C78.5632 61.5115 80.7215 60.6173 83.034 60.6173H89.4473C92.4998 60.7098 94.8432 63.1148 94.8432 66.0748V72.4265C94.8432 75.3865 92.4998 77.7915 89.5398 77.884H83.4348ZM89.3857 65.2423H83.0648C81.9857 65.2423 80.999 65.6431 80.2898 66.3831C79.3957 67.2465 78.964 68.4181 79.0873 69.5898C79.2723 71.6248 81.2148 73.259 83.4348 73.259H89.4782C89.879 73.259 90.249 72.889 90.249 72.4265V66.0748C90.249 65.6123 89.879 65.2731 89.3857 65.2423Z" fill="#6C57DB"/>
<path d="M66.1667 62.3125H44.5834C43.3192 62.3125 42.2709 61.2642 42.2709 60C42.2709 58.7358 43.3192 57.6875 44.5834 57.6875H66.1667C67.4309 57.6875 68.4792 58.7358 68.4792 60C68.4792 61.2642 67.4309 62.3125 66.1667 62.3125Z" fill="#6C57DB"/>
</svg>
